<svg width="172" height="31" viewBox="0 0 172 31" fill="none" xmlns="http://www.w3.org/2000/svg">
<mask id="path-1-inside-1_357_980" fill="white">
<path fill-rule="evenodd" clip-rule="evenodd" d="M29.7669 24.4691H29.7789V26.0975C29.7789 28.667 27.6959 30.75 25.1264 30.75H22.4512V30.7415H7.62468C6.84066 30.7415 6.2051 30.1041 6.2051 29.3178V28.1231C6.21102 28.0705 6.21406 28.0171 6.21406 27.9631C6.21406 27.8918 6.20877 27.8216 6.19854 27.7529C6.19761 27.7463 6.1966 27.7398 6.19548 27.7333C6.07656 27.005 5.40112 26.447 4.58568 26.447C3.7181 26.447 3.00899 27.0787 2.96 27.875L2.95692 27.8767V29.2195C2.95692 30.032 2.29823 30.6907 1.48571 30.6907C0.673178 30.6907 0.0144939 30.032 0.0144939 29.2195L0.0144939 23.5022C0.00610924 23.4249 0.0017395 23.3602 0.0017395 23.3101L0.0017395 19.9364C0.0017395 19.1501 0.637308 18.5127 1.42132 18.5127H2.90576L2.9226 18.5127H10.7242C11.472 18.5127 12.0783 19.1189 12.0783 19.8668C12.0783 20.6147 11.472 21.2209 10.7242 21.2209H9.30779L9.30381 21.2209L9.29984 21.2209H9.2856L9.28569 21.221C8.4567 21.2315 7.78767 21.9565 7.78767 22.8493C7.78767 23.7486 8.46647 24.4777 9.30381 24.4777L9.30663 24.4777L9.30678 24.4777C9.37811 24.5039 16.5254 24.5141 22.0441 24.518V24.5106L22.0675 24.5108C22.8899 24.5108 23.5625 23.8689 23.6116 23.0587L23.6143 23.0568V22.9855L23.6144 22.9638L23.6143 22.9421V19.5925C23.6143 18.9502 24.135 18.4294 24.7774 18.4294H28.6038C29.2462 18.4294 29.7669 18.9502 29.7669 19.5925L29.7669 24.4691ZM20.4872 10.2876H20.4856L20.4779 10.2876L20.4701 10.2876H19.0569C18.309 10.2876 17.7028 10.8939 17.7028 11.6417C17.7028 12.3896 18.309 12.9958 19.0569 12.9958H24.8354C24.8876 13.0017 24.9407 13.0047 24.9945 13.0047H28.3587C29.1427 13.0047 29.7783 12.3673 29.7783 11.5811V8.2073C29.7783 8.15926 29.7743 8.09774 29.7666 8.02458V2.28917C29.7666 1.47664 29.1079 0.817955 28.2954 0.817955C27.4828 0.817955 26.8241 1.47664 26.8241 2.28917V3.51263C26.8244 3.52357 26.8245 3.53453 26.8245 3.54552C26.8245 3.55652 26.8244 3.56748 26.8241 3.57842V3.64013L26.8213 3.64174C26.768 4.43422 26.0608 5.06161 25.1961 5.06161C24.4125 5.06161 23.7581 4.54619 23.6027 3.85959C23.5869 3.80939 23.5776 3.75428 23.5754 3.69378C23.5704 3.645 23.5677 3.59554 23.5677 3.54552C23.5677 3.49709 23.5702 3.44919 23.575 3.40192V2.19959C23.575 1.41335 22.9394 0.775972 22.1554 0.775972H8.43487H7.3301V0.75H4.6549C2.08538 0.75 0.00237853 2.83301 0.00237853 5.40252L0.00237853 5.57318L0.00217211 5.57336L0.00237853 5.58089L0.00237853 7.03091H0.0147278L0.0147278 11.9161C0.0147278 12.5585 0.535479 13.0793 1.17786 13.0793H5.00426C5.64664 13.0793 6.16739 12.5585 6.16739 11.9161L6.16739 8.55155L6.16738 8.54483L6.16739 8.5381V8.45186L6.17025 8.44985C6.21932 7.63972 6.89187 6.99786 7.71434 6.99786C7.72491 6.99786 7.73546 6.99797 7.74598 6.99818C10.7198 6.99887 19.3798 7.00352 20.3796 7.03424C20.4121 7.032 20.4448 7.03087 20.4779 7.03087C21.3152 7.03087 21.994 7.75992 21.994 8.65925C21.994 9.55525 21.3202 10.2822 20.4872 10.2876Z"/>
</mask>
<path fill-rule="evenodd" clip-rule="evenodd" d="M29.7669 24.4691H29.7789V26.0975C29.7789 28.667 27.6959 30.75 25.1264 30.75H22.4512V30.7415H7.62468C6.84066 30.7415 6.2051 30.1041 6.2051 29.3178V28.1231C6.21102 28.0705 6.21406 28.0171 6.21406 27.9631C6.21406 27.8918 6.20877 27.8216 6.19854 27.7529C6.19761 27.7463 6.1966 27.7398 6.19548 27.7333C6.07656 27.005 5.40112 26.447 4.58568 26.447C3.7181 26.447 3.00899 27.0787 2.96 27.875L2.95692 27.8767V29.2195C2.95692 30.032 2.29823 30.6907 1.48571 30.6907C0.673178 30.6907 0.0144939 30.032 0.0144939 29.2195L0.0144939 23.5022C0.00610924 23.4249 0.0017395 23.3602 0.0017395 23.3101L0.0017395 19.9364C0.0017395 19.1501 0.637308 18.5127 1.42132 18.5127H2.90576L2.9226 18.5127H10.7242C11.472 18.5127 12.0783 19.1189 12.0783 19.8668C12.0783 20.6147 11.472 21.2209 10.7242 21.2209H9.30779L9.30381 21.2209L9.29984 21.2209H9.2856L9.28569 21.221C8.4567 21.2315 7.78767 21.9565 7.78767 22.8493C7.78767 23.7486 8.46647 24.4777 9.30381 24.4777L9.30663 24.4777L9.30678 24.4777C9.37811 24.5039 16.5254 24.5141 22.0441 24.518V24.5106L22.0675 24.5108C22.8899 24.5108 23.5625 23.8689 23.6116 23.0587L23.6143 23.0568V22.9855L23.6144 22.9638L23.6143 22.9421V19.5925C23.6143 18.9502 24.135 18.4294 24.7774 18.4294H28.6038C29.2462 18.4294 29.7669 18.9502 29.7669 19.5925L29.7669 24.4691ZM20.4872 10.2876H20.4856L20.4779 10.2876L20.4701 10.2876H19.0569C18.309 10.2876 17.7028 10.8939 17.7028 11.6417C17.7028 12.3896 18.309 12.9958 19.0569 12.9958H24.8354C24.8876 13.0017 24.9407 13.0047 24.9945 13.0047H28.3587C29.1427 13.0047 29.7783 12.3673 29.7783 11.5811V8.2073C29.7783 8.15926 29.7743 8.09774 29.7666 8.02458V2.28917C29.7666 1.47664 29.1079 0.817955 28.2954 0.817955C27.4828 0.817955 26.8241 1.47664 26.8241 2.28917V3.51263C26.8244 3.52357 26.8245 3.53453 26.8245 3.54552C26.8245 3.55652 26.8244 3.56748 26.8241 3.57842V3.64013L26.8213 3.64174C26.768 4.43422 26.0608 5.06161 25.1961 5.06161C24.4125 5.06161 23.7581 4.54619 23.6027 3.85959C23.5869 3.80939 23.5776 3.75428 23.5754 3.69378C23.5704 3.645 23.5677 3.59554 23.5677 3.54552C23.5677 3.49709 23.5702 3.44919 23.575 3.40192V2.19959C23.575 1.41335 22.9394 0.775972 22.1554 0.775972H8.43487H7.3301V0.75H4.6549C2.08538 0.75 0.00237853 2.83301 0.00237853 5.40252L0.00237853 5.57318L0.00217211 5.57336L0.00237853 5.58089L0.00237853 7.03091H0.0147278L0.0147278 11.9161C0.0147278 12.5585 0.535479 13.0793 1.17786 13.0793H5.00426C5.64664 13.0793 6.16739 12.5585 6.16739 11.9161L6.16739 8.55155L6.16738 8.54483L6.16739 8.5381V8.45186L6.17025 8.44985C6.21932 7.63972 6.89187 6.99786 7.71434 6.99786C7.72491 6.99786 7.73546 6.99797 7.74598 6.99818C10.7198 6.99887 19.3798 7.00352 20.3796 7.03424C20.4121 7.032 20.4448 7.03087 20.4779 7.03087C21.3152 7.03087 21.994 7.75992 21.994 8.65925C21.994 9.55525 21.3202 10.2822 20.4872 10.2876Z" fill="#5353D3"/>
<path d="M29.7789 24.4691H29.9789V24.2691H29.7789V24.4691ZM29.7669 24.4691H29.5669V24.6691H29.7669V24.4691ZM22.4512 30.75H22.2512V30.95H22.4512V30.75ZM22.4512 30.7415H22.6512V30.5415H22.4512V30.7415ZM6.2051 28.1231L6.00635 28.1007L6.0051 28.1119V28.1231H6.2051ZM6.19854 27.7529L6.00045 27.7806L6.00072 27.7824L6.19854 27.7529ZM6.19548 27.7333L5.99809 27.7655L5.99838 27.7672L6.19548 27.7333ZM2.96 27.875L3.05785 28.0494L3.15293 27.9961L3.15962 27.8873L2.96 27.875ZM2.95692 27.8767L2.85907 27.7023L2.75692 27.7596V27.8767H2.95692ZM0.0144939 23.5022H0.214494V23.4914L0.213327 23.4806L0.0144939 23.5022ZM2.90576 18.5127V18.7127L2.90632 18.7127L2.90576 18.5127ZM2.9226 18.5127V18.3127L2.92203 18.3127L2.9226 18.5127ZM9.30779 21.2209L9.30755 21.4209H9.30779V21.2209ZM9.30381 21.2209L9.30405 21.0209L9.30357 21.0209L9.30381 21.2209ZM9.29984 21.2209V21.4209H9.30007L9.29984 21.2209ZM9.2856 21.2209V21.0209H8.86146L9.13129 21.3482L9.2856 21.2209ZM9.28569 21.221L9.2882 21.421L9.70548 21.4158L9.44 21.0938L9.28569 21.221ZM9.30381 24.4777V24.6777L9.30402 24.6777L9.30381 24.4777ZM9.30663 24.4777L9.37583 24.29L9.34223 24.2776L9.30643 24.2777L9.30663 24.4777ZM9.30678 24.4777L9.23759 24.6654L9.23784 24.6655L9.30678 24.4777ZM22.0441 24.518L22.0439 24.718L22.2441 24.7181V24.518H22.0441ZM22.0441 24.5106L22.0455 24.3106L21.844 24.3091V24.5106H22.0441ZM22.0675 24.5108L22.066 24.7108H22.0675V24.5108ZM23.6116 23.0587L23.4965 22.8952L23.4177 22.9506L23.4119 23.0466L23.6116 23.0587ZM23.6143 23.0568L23.7294 23.2204L23.8143 23.1606V23.0568H23.6143ZM23.6143 22.9855L23.4143 22.9841V22.9855H23.6143ZM23.6144 22.9638L23.8144 22.9652L23.8144 22.9624L23.6144 22.9638ZM23.6143 22.9421H23.4143L23.4143 22.9435L23.6143 22.9421ZM29.7669 19.5925H29.5669H29.7669ZM20.4856 10.2876V10.0876L20.4851 10.0876L20.4856 10.2876ZM20.4872 10.2876V10.4876L20.4885 10.4876L20.4872 10.2876ZM20.4779 10.2876L20.4773 10.4876L20.4784 10.4876L20.4779 10.2876ZM20.4701 10.2876L20.4706 10.0876H20.4701V10.2876ZM24.8354 12.9958L24.8576 12.7971L24.8465 12.7958H24.8354V12.9958ZM29.7666 8.02458H29.5666V8.03512L29.5677 8.0456L29.7666 8.02458ZM26.8241 3.51263H26.6241L26.6242 3.5172L26.8241 3.51263ZM26.8241 3.57842L26.6241 3.57385V3.57842H26.8241ZM26.8241 3.64013L26.9221 3.81452L27.0241 3.7572V3.64013H26.8241ZM26.8213 3.64174L26.7234 3.46735L26.629 3.52034L26.6217 3.62831L26.8213 3.64174ZM23.6027 3.85959L23.7978 3.81545L23.796 3.80742L23.7935 3.79957L23.6027 3.85959ZM23.5754 3.69378L23.7758 3.68667L23.7744 3.67304L23.5754 3.69378ZM23.575 3.40192L23.7739 3.422L23.775 3.41198V3.40192H23.575ZM7.3301 0.775972H7.1301V0.975973H7.3301V0.775972ZM7.3301 0.75H7.5301V0.549999H7.3301V0.75ZM0.00237853 5.57318L0.135098 5.72279L0.202379 5.66311L0.202379 5.57318H0.00237853ZM0.00217211 5.57336L-0.130548 5.42374L-0.200306 5.48562L-0.197753 5.57883L0.00217211 5.57336ZM0.00237853 5.58089H0.202454L0.202304 5.57542L0.00237853 5.58089ZM0.00237853 7.03091H-0.197621V7.23091H0.00237853L0.00237853 7.03091ZM0.0147278 7.03091H0.214728L0.214728 6.83091H0.0147278L0.0147278 7.03091ZM0.0147278 11.9161H0.214728H0.0147278ZM6.16739 8.55155H6.36739L6.36739 8.55113L6.16739 8.55155ZM6.16738 8.54483L5.96738 8.5444L5.96738 8.54525L6.16738 8.54483ZM6.16739 8.5381L6.36739 8.53853V8.5381H6.16739ZM6.16739 8.45186L6.05236 8.28825L5.96739 8.34799V8.45186H6.16739ZM6.17025 8.44985L6.28528 8.61346L6.36406 8.55807L6.36988 8.46194L6.17025 8.44985ZM7.74598 6.99818L7.74196 7.19818L7.74594 7.19818L7.74598 6.99818ZM20.3796 7.03424L20.3734 7.23414L20.3834 7.23445L20.3933 7.23377L20.3796 7.03424ZM29.7789 24.2691H29.7669V24.6691H29.7789V24.2691ZM29.9789 26.0975V24.4691H29.5789V26.0975H29.9789ZM25.1264 30.95C27.8063 30.95 29.9789 28.7775 29.9789 26.0975H29.5789C29.5789 28.5565 27.5854 30.55 25.1264 30.55V30.95ZM22.4512 30.95H25.1264V30.55H22.4512V30.95ZM22.2512 30.7415V30.75H22.6512V30.7415H22.2512ZM7.62468 30.9415H22.4512V30.5415H7.62468V30.9415ZM6.0051 29.3178C6.0051 30.214 6.72967 30.9415 7.62468 30.9415V30.5415C6.95166 30.5415 6.4051 29.9942 6.4051 29.3178H6.0051ZM6.0051 28.1231V29.3178H6.4051V28.1231H6.0051ZM6.01406 27.9631C6.01406 28.0096 6.01145 28.0556 6.00635 28.1007L6.40384 28.1455C6.4106 28.0855 6.41406 28.0246 6.41406 27.9631H6.01406ZM6.00072 27.7824C6.00951 27.8414 6.01406 27.9017 6.01406 27.9631H6.41406C6.41406 27.8818 6.40803 27.8018 6.39636 27.7235L6.00072 27.7824ZM5.99838 27.7672C5.99913 27.7716 5.99982 27.776 6.00046 27.7806L6.39662 27.7253C6.39541 27.7166 6.39406 27.708 6.39259 27.6994L5.99838 27.7672ZM4.58568 26.647C5.31213 26.647 5.89638 27.1427 5.9981 27.7655L6.39287 27.7011C6.25674 26.8674 5.4901 26.247 4.58568 26.247V26.647ZM3.15962 27.8873C3.20142 27.2079 3.81196 26.647 4.58568 26.647V26.247C3.62425 26.247 2.81656 26.9495 2.76038 27.8627L3.15962 27.8873ZM3.05477 28.0512L3.05785 28.0494L2.86215 27.7006L2.85907 27.7023L3.05477 28.0512ZM3.15692 29.2195V27.8767H2.75692V29.2195H3.15692ZM1.48571 30.8907C2.40869 30.8907 3.15692 30.1425 3.15692 29.2195H2.75692C2.75692 29.9215 2.18778 30.4907 1.48571 30.4907V30.8907ZM-0.185506 29.2195C-0.185506 30.1424 0.562721 30.8907 1.48571 30.8907V30.4907C0.783635 30.4907 0.214494 29.9215 0.214494 29.2195H-0.185506ZM-0.185506 23.5022L-0.185506 29.2195H0.214494L0.214494 23.5022H-0.185506ZM-0.198261 23.3101C-0.198261 23.3704 -0.193098 23.443 -0.184339 23.5238L0.213327 23.4806C0.205316 23.4068 0.20174 23.35 0.20174 23.3101H-0.198261ZM-0.198261 19.9364L-0.198261 23.3101H0.20174L0.20174 19.9364H-0.198261ZM1.42132 18.3127C0.526316 18.3127 -0.198261 19.0402 -0.198261 19.9364H0.20174C0.20174 19.26 0.7483 18.7127 1.42132 18.7127V18.3127ZM2.90576 18.3127H1.42132V18.7127H2.90576V18.3127ZM2.92203 18.3127L2.90519 18.3127L2.90632 18.7127L2.92316 18.7127L2.92203 18.3127ZM10.7242 18.3127H2.9226V18.7127H10.7242V18.3127ZM12.2783 19.8668C12.2783 19.0085 11.5825 18.3127 10.7242 18.3127V18.7127C11.3616 18.7127 11.8783 19.2294 11.8783 19.8668H12.2783ZM10.7242 21.4209C11.5825 21.4209 12.2783 20.7251 12.2783 19.8668H11.8783C11.8783 20.5042 11.3616 21.0209 10.7242 21.0209V21.4209ZM9.30779 21.4209H10.7242V21.0209H9.30779V21.4209ZM9.30357 21.4209L9.30755 21.4209L9.30803 21.0209L9.30405 21.0209L9.30357 21.4209ZM9.30007 21.4209L9.30405 21.4209L9.30357 21.0209L9.2996 21.0209L9.30007 21.4209ZM9.2856 21.4209H9.29984V21.0209H9.2856V21.4209ZM9.44 21.0938L9.43991 21.0937L9.13129 21.3482L9.13138 21.3483L9.44 21.0938ZM7.98767 22.8493C7.98767 22.0526 8.58152 21.4299 9.2882 21.421L9.28317 21.021C8.33187 21.033 7.58767 21.8603 7.58767 22.8493H7.98767ZM9.30381 24.2777C8.59014 24.2777 7.98767 23.6519 7.98767 22.8493H7.58767C7.58767 23.8454 8.3428 24.6777 9.30381 24.6777V24.2777ZM9.30643 24.2777L9.30361 24.2777L9.30402 24.6777L9.30683 24.6777L9.30643 24.2777ZM9.37598 24.2901L9.37583 24.29L9.23744 24.6653L9.23759 24.6654L9.37598 24.2901ZM22.0442 24.318C19.2849 24.316 16.1186 24.3125 13.6332 24.3062C12.3905 24.3031 11.3182 24.2992 10.5522 24.2945C10.1692 24.2922 9.86316 24.2896 9.65084 24.2868C9.54455 24.2854 9.46248 24.284 9.40621 24.2825C9.37788 24.2818 9.35731 24.2811 9.3439 24.2804C9.33698 24.28 9.33369 24.2798 9.33291 24.2797C9.33238 24.2797 9.33449 24.2798 9.33807 24.2804C9.33987 24.2806 9.34354 24.2812 9.34832 24.2822C9.3518 24.2829 9.36247 24.2851 9.37573 24.29L9.23784 24.6655C9.26026 24.6737 9.28017 24.6761 9.28142 24.6763C9.28784 24.6772 9.29364 24.6778 9.29765 24.6782C9.30594 24.6789 9.31511 24.6794 9.32397 24.6799C9.34212 24.6808 9.36641 24.6816 9.3957 24.6824C9.45466 24.6839 9.53884 24.6854 9.6456 24.6868C9.85935 24.6896 10.1665 24.6922 10.5498 24.6945C11.3165 24.6992 12.3893 24.7031 13.6322 24.7062C16.1179 24.7125 19.2846 24.716 22.0439 24.718L22.0442 24.318ZM21.844 24.5106V24.518H22.2441V24.5106H21.844ZM22.0689 24.3108L22.0455 24.3106L22.0426 24.7106L22.066 24.7108L22.0689 24.3108ZM23.4119 23.0466C23.3692 23.7519 22.7835 24.3108 22.0675 24.3108V24.7108C22.9964 24.7108 23.7558 23.9859 23.8112 23.0708L23.4119 23.0466ZM23.4992 22.8933L23.4965 22.8952L23.7267 23.2223L23.7294 23.2204L23.4992 22.8933ZM23.4143 22.9855V23.0568H23.8143V22.9855H23.4143ZM23.4144 22.9624L23.4143 22.9841L23.8143 22.9869L23.8144 22.9652L23.4144 22.9624ZM23.4143 22.9435L23.4144 22.9652L23.8144 22.9624L23.8143 22.9408L23.4143 22.9435ZM23.4143 19.5925V22.9421H23.8143V19.5925H23.4143ZM24.7774 18.2294C24.0246 18.2294 23.4143 18.8397 23.4143 19.5925H23.8143C23.8143 19.0606 24.2455 18.6294 24.7774 18.6294V18.2294ZM28.6038 18.2294H24.7774V18.6294H28.6038V18.2294ZM29.9669 19.5925C29.9669 18.8397 29.3566 18.2294 28.6038 18.2294V18.6294C29.1357 18.6294 29.5669 19.0606 29.5669 19.5925H29.9669ZM29.9669 24.4691L29.9669 19.5925H29.5669L29.5669 24.4691H29.9669ZM20.4856 10.4876H20.4872V10.0876H20.4856V10.4876ZM20.4784 10.4876L20.4862 10.4876L20.4851 10.0876L20.4773 10.0876L20.4784 10.4876ZM20.4696 10.4876L20.4773 10.4876L20.4784 10.0876L20.4706 10.0876L20.4696 10.4876ZM19.0569 10.4876H20.4701V10.0876H19.0569V10.4876ZM17.9028 11.6417C17.9028 11.0043 18.4195 10.4876 19.0569 10.4876V10.0876C18.1986 10.0876 17.5028 10.7834 17.5028 11.6417H17.9028ZM19.0569 12.7958C18.4195 12.7958 17.9028 12.2791 17.9028 11.6417H17.5028C17.5028 12.5 18.1986 13.1958 19.0569 13.1958V12.7958ZM24.8354 12.7958H19.0569V13.1958H24.8354V12.7958ZM24.9945 12.8047C24.9482 12.8047 24.9025 12.8021 24.8576 12.7971L24.8131 13.1946C24.8728 13.2013 24.9333 13.2047 24.9945 13.2047V12.8047ZM28.3587 12.8047H24.9945V13.2047H28.3587V12.8047ZM29.5783 11.5811C29.5783 12.2574 29.0318 12.8047 28.3587 12.8047V13.2047C29.2537 13.2047 29.9783 12.4772 29.9783 11.5811H29.5783ZM29.5783 8.2073V11.5811H29.9783V8.2073H29.5783ZM29.5677 8.0456C29.575 8.11528 29.5783 8.16909 29.5783 8.2073H29.9783C29.9783 8.14943 29.9736 8.08021 29.9655 8.00357L29.5677 8.0456ZM29.5666 2.28917V8.02458H29.9666V2.28917H29.5666ZM28.2954 1.01796C28.9974 1.01796 29.5666 1.5871 29.5666 2.28917H29.9666C29.9666 1.36618 29.2183 0.617954 28.2954 0.617954V1.01796ZM27.0241 2.28917C27.0241 1.5871 27.5933 1.01796 28.2954 1.01796V0.617954C27.3724 0.617954 26.6241 1.36618 26.6241 2.28917H27.0241ZM27.0241 3.51263V2.28917H26.6241V3.51263H27.0241ZM27.0245 3.54552C27.0245 3.533 27.0244 3.52052 27.0241 3.50806L26.6242 3.5172C26.6244 3.52662 26.6245 3.53606 26.6245 3.54552H27.0245ZM27.0241 3.58299C27.0244 3.57053 27.0245 3.55804 27.0245 3.54552H26.6245C26.6245 3.55499 26.6244 3.56443 26.6242 3.57385L27.0241 3.58299ZM27.0241 3.64013V3.57842H26.6241V3.64013H27.0241ZM26.9192 3.81612L26.9221 3.81452L26.7262 3.46575L26.7234 3.46735L26.9192 3.81612ZM25.1961 5.26161C26.1543 5.26161 26.9597 4.5639 27.0208 3.65516L26.6217 3.62831C26.5763 4.30453 25.9672 4.8616 25.1961 4.8616V5.26161ZM23.4077 3.90373C23.5852 4.6886 24.3265 5.26161 25.1961 5.26161V4.8616C24.4984 4.8616 23.9309 4.40378 23.7978 3.81545L23.4077 3.90373ZM23.3756 3.70087C23.3783 3.77777 23.3903 3.85082 23.412 3.91961L23.7935 3.79957C23.7836 3.76796 23.7769 3.73079 23.7753 3.68669L23.3756 3.70087ZM23.3677 3.54552C23.3677 3.60249 23.3707 3.65886 23.3765 3.71451L23.7744 3.67304C23.77 3.63114 23.7677 3.5886 23.7677 3.54552H23.3677ZM23.376 3.38184C23.3705 3.43576 23.3677 3.49037 23.3677 3.54552H23.7677C23.7677 3.50381 23.7698 3.46261 23.7739 3.422L23.376 3.38184ZM23.375 2.19959V3.40192H23.775V2.19959H23.375ZM22.1554 0.975973C22.8284 0.975973 23.375 1.52327 23.375 2.19959H23.775C23.775 1.30342 23.0504 0.575972 22.1554 0.575972V0.975973ZM8.43487 0.975973H22.1554V0.575972H8.43487V0.975973ZM7.3301 0.975973H8.43487V0.575972H7.3301V0.975973ZM7.1301 0.75V0.775972H7.5301V0.75H7.1301ZM4.6549 0.950001H7.3301V0.549999H4.6549V0.950001ZM0.202379 5.40252C0.202379 2.94346 2.19584 0.950001 4.6549 0.950001V0.549999C1.97493 0.549999 -0.197621 2.72255 -0.197621 5.40252H0.202379ZM0.202379 5.57318V5.40252H-0.197621V5.57318H0.202379ZM0.134892 5.72298L0.135098 5.72279L-0.130341 5.42356L-0.130548 5.42374L0.134892 5.72298ZM0.202304 5.57542L0.202097 5.56788L-0.197753 5.57883L-0.197546 5.58637L0.202304 5.57542ZM0.202379 7.03091L0.202379 5.58089H-0.197621L-0.197621 7.03091H0.202379ZM0.0147278 6.83091H0.00237853L0.00237853 7.23091H0.0147278L0.0147278 6.83091ZM0.214728 11.9161L0.214728 7.03091H-0.185272L-0.185272 11.9161H0.214728ZM1.17786 12.8793C0.645936 12.8793 0.214728 12.4481 0.214728 11.9161H-0.185272C-0.185272 12.669 0.425022 13.2793 1.17786 13.2793V12.8793ZM5.00426 12.8793H1.17786V13.2793H5.00426V12.8793ZM5.96739 11.9161C5.96739 12.4481 5.53619 12.8793 5.00426 12.8793V13.2793C5.7571 13.2793 6.36739 12.669 6.36739 11.9161H5.96739ZM5.96739 8.55155L5.96739 11.9161H6.36739L6.36739 8.55155H5.96739ZM5.96738 8.54525L5.96739 8.55198L6.36739 8.55113L6.36738 8.5444L5.96738 8.54525ZM5.96739 8.53768L5.96738 8.5444L6.36738 8.54525L6.36739 8.53853L5.96739 8.53768ZM5.96739 8.45186V8.5381H6.36739V8.45186H5.96739ZM6.05522 8.28624L6.05236 8.28825L6.28243 8.61547L6.28528 8.61346L6.05522 8.28624ZM7.71434 6.79786C6.78547 6.79786 6.02604 7.52271 5.97061 8.43776L6.36988 8.46194C6.4126 7.75673 6.99828 7.19786 7.71434 7.19786V6.79786ZM7.75001 6.79822C7.73815 6.79799 7.72626 6.79786 7.71434 6.79786V7.19786C7.72357 7.19786 7.73277 7.19796 7.74196 7.19814L7.75001 6.79822ZM20.3857 6.83433C19.3819 6.80349 10.7167 6.79887 7.74603 6.79818L7.74594 7.19818C10.723 7.19887 19.3777 7.20355 20.3734 7.23414L20.3857 6.83433ZM20.4779 6.83087C20.4403 6.83087 20.4029 6.83216 20.3659 6.83471L20.3933 7.23377C20.4212 7.23185 20.4494 7.23087 20.4779 7.23087V6.83087ZM22.194 8.65925C22.194 7.66316 21.4389 6.83087 20.4779 6.83087V7.23087C21.1915 7.23087 21.794 7.85669 21.794 8.65925H22.194ZM20.4885 10.4876C21.4445 10.4814 22.194 9.65171 22.194 8.65925H21.794C21.794 9.45879 21.196 10.083 20.4859 10.0876L20.4885 10.4876Z" fill="white" mask="url(#path-1-inside-1_357_980)"/>
<path d="M171.749 10.8865V13.3797H163.886V10.8865H171.749ZM165.827 7.60956H169.051V20.45C169.051 20.8833 169.116 21.2158 169.247 21.4473C169.383 21.6729 169.561 21.8272 169.781 21.9103C170.001 21.9935 170.244 22.035 170.511 22.035C170.713 22.035 170.897 22.0202 171.063 21.9905C171.235 21.9608 171.366 21.9341 171.455 21.9103L171.998 24.4303C171.826 24.4897 171.58 24.555 171.259 24.6262C170.945 24.6975 170.559 24.739 170.102 24.7509C169.294 24.7747 168.567 24.653 167.92 24.3858C167.273 24.1127 166.759 23.6913 166.379 23.1214C166.005 22.5515 165.821 21.8391 165.827 20.9843V7.60956Z" fill="url(#paint0_linear_357_980)"/>
<path d="M158.632 18.8115V10.8864H161.855V24.5639H158.73V22.1329H158.587C158.278 22.8987 157.771 23.525 157.064 24.0118C156.364 24.4986 155.5 24.742 154.473 24.742C153.577 24.742 152.784 24.5431 152.096 24.1454C151.413 23.7417 150.879 23.1569 150.493 22.3912C150.107 21.6194 149.914 20.6874 149.914 19.5951V10.8864H153.138V19.0965C153.138 19.9632 153.375 20.6518 153.85 21.1623C154.325 21.6729 154.948 21.9281 155.72 21.9281C156.195 21.9281 156.655 21.8124 157.1 21.5808C157.545 21.3493 157.91 21.005 158.195 20.5479C158.486 20.0849 158.632 19.5061 158.632 18.8115Z" fill="url(#paint1_linear_357_980)"/>
<path d="M140.875 24.831C139.539 24.831 138.382 24.5372 137.402 23.9495C136.423 23.3617 135.663 22.5396 135.123 21.4829C134.588 20.4262 134.321 19.1914 134.321 17.7786C134.321 16.3657 134.588 15.128 135.123 14.0653C135.663 13.0027 136.423 12.1776 137.402 11.5899C138.382 11.0022 139.539 10.7083 140.875 10.7083C142.211 10.7083 143.368 11.0022 144.348 11.5899C145.327 12.1776 146.084 13.0027 146.619 14.0653C147.159 15.128 147.429 16.3657 147.429 17.7786C147.429 19.1914 147.159 20.4262 146.619 21.4829C146.084 22.5396 145.327 23.3617 144.348 23.9495C143.368 24.5372 142.211 24.831 140.875 24.831ZM140.893 22.2487C141.617 22.2487 142.223 22.0498 142.709 21.6521C143.196 21.2484 143.558 20.7082 143.796 20.0314C144.039 19.3547 144.161 18.6008 144.161 17.7697C144.161 16.9326 144.039 16.1757 143.796 15.499C143.558 14.8163 143.196 14.2731 142.709 13.8694C142.223 13.4658 141.617 13.2639 140.893 13.2639C140.151 13.2639 139.533 13.4658 139.041 13.8694C138.554 14.2731 138.189 14.8163 137.945 15.499C137.708 16.1757 137.589 16.9326 137.589 17.7697C137.589 18.6008 137.708 19.3547 137.945 20.0314C138.189 20.7082 138.554 21.2484 139.041 21.6521C139.533 22.0498 140.151 22.2487 140.893 22.2487Z" fill="url(#paint2_linear_357_980)"/>
<path d="M126.654 24.831C125.288 24.831 124.116 24.5312 123.136 23.9316C122.163 23.3321 121.412 22.5039 120.883 21.4473C120.361 20.3846 120.1 19.1617 120.1 17.7786C120.1 16.3894 120.367 15.1636 120.901 14.101C121.436 13.0324 122.189 12.2013 123.163 11.6077C124.143 11.0081 125.3 10.7083 126.636 10.7083C127.746 10.7083 128.728 10.9131 129.583 11.3227C130.444 11.7264 131.13 12.2993 131.64 13.0413C132.151 13.7774 132.442 14.6382 132.513 15.6237H129.432C129.307 14.9647 129.01 14.4156 128.541 13.9763C128.078 13.5311 127.458 13.3085 126.68 13.3085C126.021 13.3085 125.443 13.4865 124.944 13.8427C124.445 14.193 124.056 14.6976 123.777 15.3565C123.504 16.0155 123.368 16.805 123.368 17.7251C123.368 18.6572 123.504 19.4586 123.777 20.1294C124.051 20.7943 124.433 21.3078 124.926 21.6699C125.425 22.0261 126.01 22.2041 126.68 22.2041C127.155 22.2041 127.58 22.1151 127.954 21.937C128.334 21.753 128.651 21.4888 128.907 21.1445C129.162 20.8002 129.337 20.3817 129.432 19.889H132.513C132.436 20.8566 132.151 21.7144 131.658 22.4624C131.165 23.2044 130.495 23.7862 129.646 24.2077C128.797 24.6232 127.799 24.831 126.654 24.831Z" fill="url(#paint3_linear_357_980)"/>
<path d="M117.986 14.5017L115.048 14.8222C114.965 14.5254 114.819 14.2464 114.612 13.9852C114.41 13.724 114.137 13.5133 113.792 13.353C113.448 13.1927 113.027 13.1126 112.528 13.1126C111.857 13.1126 111.293 13.258 110.836 13.5489C110.385 13.8398 110.162 14.2167 110.168 14.6798C110.162 15.0775 110.308 15.401 110.605 15.6504C110.907 15.8997 111.406 16.1045 112.101 16.2648L114.434 16.7634C115.728 17.0425 116.689 17.4847 117.319 18.0902C117.954 18.6957 118.274 19.4882 118.28 20.4678C118.274 21.3285 118.022 22.0884 117.523 22.7473C117.031 23.4003 116.345 23.9109 115.466 24.2789C114.588 24.647 113.579 24.831 112.439 24.831C110.765 24.831 109.417 24.4808 108.396 23.7803C107.375 23.0738 106.767 22.0914 106.571 20.8328L109.714 20.5301C109.857 21.1475 110.159 21.6135 110.622 21.9281C111.085 22.2427 111.688 22.4001 112.43 22.4001C113.196 22.4001 113.81 22.2427 114.273 21.9281C114.742 21.6135 114.977 21.2246 114.977 20.7616C114.977 20.3698 114.825 20.0463 114.523 19.791C114.226 19.5357 113.763 19.3398 113.133 19.2033L110.8 18.7135C109.489 18.4405 108.518 17.9804 107.889 17.3333C107.259 16.6803 106.948 15.8552 106.954 14.8579C106.948 14.0149 107.176 13.2847 107.639 12.6673C108.108 12.044 108.758 11.5632 109.589 11.2248C110.426 10.8805 111.391 10.7083 112.483 10.7083C114.086 10.7083 115.348 11.0497 116.268 11.7323C117.194 12.415 117.767 13.3381 117.986 14.5017Z" fill="url(#paint4_linear_357_980)"/>
<path d="M91.7549 29.6929V10.8864H94.925V13.1482H95.112C95.2782 12.8157 95.5127 12.4625 95.8154 12.0885C96.1182 11.7086 96.5278 11.3851 97.0443 11.1179C97.5607 10.8448 98.2197 10.7083 99.0211 10.7083C100.078 10.7083 101.031 10.9784 101.879 11.5186C102.734 12.0529 103.411 12.8454 103.91 13.8962C104.414 14.941 104.667 16.2232 104.667 17.7429C104.667 19.2449 104.42 20.5212 103.928 21.5719C103.435 22.6227 102.764 23.4241 101.915 23.9762C101.066 24.5282 100.104 24.8043 99.03 24.8043C98.2464 24.8043 97.5964 24.6737 97.0799 24.4125C96.5634 24.1513 96.1479 23.8367 95.8332 23.4686C95.5246 23.0946 95.2841 22.7414 95.112 22.409H94.9784V29.6929H91.7549ZM94.9161 17.7251C94.9161 18.6097 95.0407 19.3844 95.2901 20.0492C95.5453 20.7141 95.9104 21.2335 96.3853 21.6075C96.8662 21.9756 97.4479 22.1596 98.1306 22.1596C98.843 22.1596 99.4396 21.9697 99.9205 21.5897C100.401 21.2039 100.763 20.6785 101.007 20.0136C101.256 19.3428 101.381 18.58 101.381 17.7251C101.381 16.8762 101.259 16.1223 101.016 15.4634C100.772 14.8044 100.41 14.288 99.9294 13.914C99.4485 13.54 98.8489 13.353 98.1306 13.353C97.442 13.353 96.8573 13.534 96.3764 13.8962C95.8956 14.2583 95.5305 14.7658 95.2812 15.4188C95.0378 16.0718 94.9161 16.8406 94.9161 17.7251Z" fill="url(#paint5_linear_357_980)"/>
<path d="M81.5428 24.8399C80.6761 24.8399 79.8954 24.6856 79.2009 24.3769C78.5123 24.0622 77.9661 23.5992 77.5624 22.9878C77.1647 22.3763 76.9658 21.6224 76.9658 20.726C76.9658 19.9543 77.1083 19.3161 77.3932 18.8115C77.6782 18.3069 78.067 17.9032 78.5597 17.6005C79.0525 17.2977 79.6075 17.0692 80.2249 16.9148C80.8482 16.7545 81.4923 16.6388 82.1572 16.5675C82.9586 16.4844 83.6087 16.4102 84.1073 16.3449C84.606 16.2737 84.9681 16.1668 85.1937 16.0244C85.4252 15.8759 85.5409 15.6474 85.5409 15.3387V15.2853C85.5409 14.6145 85.3421 14.095 84.9443 13.727C84.5466 13.3589 83.9737 13.1749 83.2258 13.1749C82.4362 13.1749 81.8099 13.347 81.3469 13.6914C80.8898 14.0357 80.5811 14.4423 80.4208 14.9113L77.411 14.4839C77.6485 13.6528 78.0403 12.9582 78.5865 12.4002C79.1326 11.8362 79.8005 11.4147 80.59 11.1357C81.3795 10.8508 82.2522 10.7083 83.2079 10.7083C83.8669 10.7083 84.5229 10.7855 85.1759 10.9398C85.8289 11.0942 86.4255 11.3494 86.9657 11.7056C87.5059 12.0559 87.9393 12.5338 88.2658 13.1393C88.5982 13.7448 88.7644 14.5017 88.7644 15.4099V24.5639H85.6656V22.685H85.5588C85.3629 23.0649 85.0868 23.4211 84.7306 23.7535C84.3804 24.0801 83.9381 24.3442 83.4038 24.5461C82.8755 24.742 82.2552 24.8399 81.5428 24.8399ZM82.3798 22.4713C83.0269 22.4713 83.5879 22.3437 84.0628 22.0884C84.5377 21.8272 84.9028 21.4829 85.158 21.0555C85.4193 20.628 85.5499 20.162 85.5499 19.6574V18.0457C85.4489 18.1288 85.2768 18.206 85.0334 18.2772C84.7959 18.3485 84.5288 18.4108 84.232 18.4642C83.9352 18.5176 83.6413 18.5651 83.3504 18.6067C83.0595 18.6482 82.8072 18.6839 82.5935 18.7135C82.1127 18.7788 81.6823 18.8857 81.3024 19.0341C80.9224 19.1825 80.6226 19.3903 80.403 19.6574C80.1833 19.9186 80.0735 20.257 80.0735 20.6726C80.0735 21.2662 80.2902 21.7144 80.7236 22.0172C81.1569 22.3199 81.709 22.4713 82.3798 22.4713Z" fill="url(#paint6_linear_357_980)"/>
<path d="M59.6946 24.5639L55.83 10.8864H59.1158L61.52 20.5034H61.6447L64.1023 10.8864H67.3525L69.8102 20.45H69.9437L72.3124 10.8864H75.6071L71.7336 24.5639H68.3765L65.812 15.3209H65.625L63.0605 24.5639H59.6946Z" fill="url(#paint7_linear_357_980)"/>
<path d="M50.8915 11.3406C50.8084 10.5629 50.4582 9.95738 49.8408 9.52402C49.2293 9.09066 48.4339 8.87399 47.4544 8.87399C46.7657 8.87399 46.1751 8.97787 45.6823 9.18565C45.1896 9.39342 44.8127 9.6754 44.5515 10.0316C44.2903 10.3878 44.1567 10.7944 44.1508 11.2515C44.1508 11.6314 44.2368 11.9609 44.409 12.2399C44.5871 12.5189 44.8275 12.7564 45.1303 12.9523C45.433 13.1423 45.7684 13.3025 46.1365 13.4331C46.5045 13.5637 46.8756 13.6736 47.2496 13.7626L48.9592 14.19C49.6479 14.3503 50.3098 14.567 50.945 14.8401C51.5861 15.1131 52.159 15.4575 52.6636 15.873C53.1741 16.2885 53.5778 16.7902 53.8746 17.3779C54.1714 17.9656 54.3198 18.6542 54.3198 19.4437C54.3198 20.5123 54.0467 21.4532 53.5006 22.2665C52.9544 23.0739 52.1649 23.7061 51.132 24.1632C50.105 24.6143 48.8613 24.8399 47.4009 24.8399C45.9821 24.8399 44.7503 24.6203 43.7055 24.181C42.6667 23.7417 41.8534 23.1006 41.2657 22.2576C40.6839 21.4146 40.3693 20.3876 40.3218 19.1766H43.572C43.6194 19.8118 43.8153 20.3401 44.1597 20.7616C44.504 21.1831 44.9522 21.4977 45.5043 21.7055C46.0623 21.9133 46.6856 22.0172 47.3742 22.0172C48.0925 22.0172 48.7218 21.9103 49.262 21.6966C49.8081 21.477 50.2356 21.1742 50.5443 20.7883C50.8529 20.3965 51.0103 19.9394 51.0162 19.417C51.0103 18.9421 50.8708 18.5503 50.5977 18.2416C50.3246 17.927 49.9417 17.6658 49.449 17.458C48.9622 17.2443 48.3923 17.0543 47.7393 16.8881L45.6645 16.3539C44.1626 15.968 42.9753 15.3832 42.1027 14.5996C41.236 13.8101 40.8026 12.7623 40.8026 11.4563C40.8026 10.3818 41.0935 9.44091 41.6753 8.63356C42.263 7.82621 43.0614 7.19992 44.0706 6.75469C45.0798 6.30352 46.2226 6.07794 47.4989 6.07794C48.793 6.07794 49.9269 6.30352 50.9004 6.75469C51.8799 7.19992 52.6487 7.82028 53.2067 8.61575C53.7648 9.40529 54.0527 10.3136 54.0705 11.3406H50.8915Z" fill="url(#paint8_linear_357_980)"/>
<defs>
<linearGradient id="paint0_linear_357_980" x1="165.527" y1="15.8594" x2="105.589" y2="-42.5104" gradientUnits="userSpaceOnUse">
<stop stop-color="#63B3ED"/>
<stop offset="1" stop-color="#5353D3"/>
</linearGradient>
<linearGradient id="paint1_linear_357_980" x1="165.527" y1="15.8593" x2="105.589" y2="-42.5105" gradientUnits="userSpaceOnUse">
<stop stop-color="#63B3ED"/>
<stop offset="1" stop-color="#5353D3"/>
</linearGradient>
<linearGradient id="paint2_linear_357_980" x1="165.527" y1="15.8593" x2="105.589" y2="-42.5105" gradientUnits="userSpaceOnUse">
<stop stop-color="#63B3ED"/>
<stop offset="1" stop-color="#5353D3"/>
</linearGradient>
<linearGradient id="paint3_linear_357_980" x1="165.527" y1="15.8593" x2="105.589" y2="-42.5105" gradientUnits="userSpaceOnUse">
<stop stop-color="#63B3ED"/>
<stop offset="1" stop-color="#5353D3"/>
</linearGradient>
<linearGradient id="paint4_linear_357_980" x1="165.527" y1="15.8593" x2="105.589" y2="-42.5105" gradientUnits="userSpaceOnUse">
<stop stop-color="#63B3ED"/>
<stop offset="1" stop-color="#5353D3"/>
</linearGradient>
<linearGradient id="paint5_linear_357_980" x1="165.527" y1="15.8593" x2="105.589" y2="-42.5105" gradientUnits="userSpaceOnUse">
<stop stop-color="#63B3ED"/>
<stop offset="1" stop-color="#5353D3"/>
</linearGradient>
<linearGradient id="paint6_linear_357_980" x1="165.527" y1="15.8593" x2="105.589" y2="-42.5105" gradientUnits="userSpaceOnUse">
<stop stop-color="#63B3ED"/>
<stop offset="1" stop-color="#5353D3"/>
</linearGradient>
<linearGradient id="paint7_linear_357_980" x1="165.527" y1="15.8593" x2="105.589" y2="-42.5105" gradientUnits="userSpaceOnUse">
<stop stop-color="#63B3ED"/>
<stop offset="1" stop-color="#5353D3"/>
</linearGradient>
<linearGradient id="paint8_linear_357_980" x1="165.527" y1="15.8593" x2="105.589" y2="-42.5104" gradientUnits="userSpaceOnUse">
<stop stop-color="#63B3ED"/>
<stop offset="1" stop-color="#5353D3"/>
</linearGradient>
</defs>
</svg>
