<svg width="30" height="30" viewBox="0 0 30 30" fill="none" xmlns="http://www.w3.org/2000/svg">
  <mask id="path-1-inside-1_489_1696" fill="white">
    <path fill-rule="evenodd" clip-rule="evenodd" d="M29.7652 23.7191H29.7772V25.3475C29.7772 27.917 27.6941 30 25.1246 30H22.4494V29.9915H7.62294C6.83892 29.9915 6.20336 29.3541 6.20336 28.5678V27.3731C6.20928 27.3205 6.21232 27.2671 6.21232 27.2131C6.21232 27.1418 6.20703 27.0716 6.1968 27.0029C6.19588 26.9963 6.19486 26.9898 6.19374 26.9833C6.07482 26.255 5.39938 25.697 4.58394 25.697C3.71636 25.697 3.00725 26.3287 2.95826 27.125L2.95518 27.1267V28.4695C2.95518 29.282 2.2965 29.9407 1.48397 29.9407C0.671438 29.9407 0.0127544 29.282 0.0127544 28.4695L0.0127544 22.7522C0.00436974 22.6749 0 22.6102 0 22.5601L0 19.1864C0 18.4001 0.635569 17.7627 1.41958 17.7627H2.90402L2.92086 17.7627H10.7224C11.4703 17.7627 12.0766 18.3689 12.0766 19.1168C12.0766 19.8647 11.4703 20.4709 10.7224 20.4709H9.30605L9.30207 20.4709L9.2981 20.4709H9.28386L9.28395 20.471C8.45496 20.4815 7.78593 21.2065 7.78593 22.0993C7.78593 22.9986 8.46473 23.7277 9.30207 23.7277L9.30489 23.7277L9.30504 23.7277C9.37637 23.7539 16.5237 23.7641 22.0423 23.768V23.7606L22.0657 23.7608C22.8882 23.7608 23.5608 23.1189 23.6098 22.3087L23.6125 22.3068V22.2355L23.6127 22.2138L23.6125 22.1921V18.8425C23.6125 18.2002 24.1333 17.6794 24.7757 17.6794H28.6021C29.2445 17.6794 29.7652 18.2002 29.7652 18.8425L29.7652 23.7191ZM20.4854 9.53761H20.4839L20.4761 9.53764L20.4684 9.53761H19.0551C18.3073 9.53761 17.701 10.1439 17.701 10.8917C17.701 11.6396 18.3073 12.2458 19.0551 12.2458H24.8336C24.8859 12.2517 24.939 12.2547 24.9928 12.2547H28.357C29.141 12.2547 29.7766 11.6173 29.7766 10.8311V7.4573C29.7766 7.40926 29.7726 7.34774 29.7648 7.27458V1.53917C29.7648 0.726641 29.1061 0.067955 28.2936 0.067955C27.4811 0.067955 26.8224 0.726639 26.8224 1.53917V2.76263C26.8226 2.77357 26.8228 2.78453 26.8228 2.79552C26.8228 2.80652 26.8226 2.81748 26.8224 2.82842V2.89013L26.8195 2.89174C26.7662 3.68422 26.059 4.31161 25.1944 4.31161C24.4107 4.31161 23.7563 3.79619 23.601 3.10959C23.5852 3.05939 23.5758 3.00428 23.5737 2.94378C23.5686 2.895 23.566 2.84554 23.566 2.79552C23.566 2.74709 23.5684 2.69919 23.5732 2.65192V1.44959C23.5732 0.663347 22.9377 0.0259724 22.1536 0.0259724H8.43313H7.32836V0H4.65316C2.08364 0 0.000639029 2.08301 0.000639029 4.65252L0.000639029 4.82318L0.000432611 4.82336L0.000639029 4.83089L0.000639029 6.28091H0.0129883L0.0129883 11.1661C0.0129883 11.8085 0.53374 12.3293 1.17612 12.3293H5.00252C5.6449 12.3293 6.16565 11.8085 6.16565 11.1661L6.16565 7.80155L6.16564 7.79483L6.16565 7.7881V7.70186L6.16851 7.69985C6.21758 6.88972 6.89013 6.24786 7.7126 6.24786C7.72318 6.24786 7.73372 6.24797 7.74424 6.24818C10.7181 6.24887 19.378 6.25352 20.3778 6.28424C20.4103 6.282 20.4431 6.28087 20.4761 6.28087C21.3135 6.28087 21.9923 7.00992 21.9923 7.90925C21.9923 8.80525 21.3185 9.53224 20.4854 9.53761Z"/>
  </mask>
  <path fill-rule="evenodd" clip-rule="evenodd" d="M29.7652 23.7191H29.7772V25.3475C29.7772 27.917 27.6941 30 25.1246 30H22.4494V29.9915H7.62294C6.83892 29.9915 6.20336 29.3541 6.20336 28.5678V27.3731C6.20928 27.3205 6.21232 27.2671 6.21232 27.2131C6.21232 27.1418 6.20703 27.0716 6.1968 27.0029C6.19588 26.9963 6.19486 26.9898 6.19374 26.9833C6.07482 26.255 5.39938 25.697 4.58394 25.697C3.71636 25.697 3.00725 26.3287 2.95826 27.125L2.95518 27.1267V28.4695C2.95518 29.282 2.2965 29.9407 1.48397 29.9407C0.671438 29.9407 0.0127544 29.282 0.0127544 28.4695L0.0127544 22.7522C0.00436974 22.6749 0 22.6102 0 22.5601L0 19.1864C0 18.4001 0.635569 17.7627 1.41958 17.7627H2.90402L2.92086 17.7627H10.7224C11.4703 17.7627 12.0766 18.3689 12.0766 19.1168C12.0766 19.8647 11.4703 20.4709 10.7224 20.4709H9.30605L9.30207 20.4709L9.2981 20.4709H9.28386L9.28395 20.471C8.45496 20.4815 7.78593 21.2065 7.78593 22.0993C7.78593 22.9986 8.46473 23.7277 9.30207 23.7277L9.30489 23.7277L9.30504 23.7277C9.37637 23.7539 16.5237 23.7641 22.0423 23.768V23.7606L22.0657 23.7608C22.8882 23.7608 23.5608 23.1189 23.6098 22.3087L23.6125 22.3068V22.2355L23.6127 22.2138L23.6125 22.1921V18.8425C23.6125 18.2002 24.1333 17.6794 24.7757 17.6794H28.6021C29.2445 17.6794 29.7652 18.2002 29.7652 18.8425L29.7652 23.7191ZM20.4854 9.53761H20.4839L20.4761 9.53764L20.4684 9.53761H19.0551C18.3073 9.53761 17.701 10.1439 17.701 10.8917C17.701 11.6396 18.3073 12.2458 19.0551 12.2458H24.8336C24.8859 12.2517 24.939 12.2547 24.9928 12.2547H28.357C29.141 12.2547 29.7766 11.6173 29.7766 10.8311V7.4573C29.7766 7.40926 29.7726 7.34774 29.7648 7.27458V1.53917C29.7648 0.726641 29.1061 0.067955 28.2936 0.067955C27.4811 0.067955 26.8224 0.726639 26.8224 1.53917V2.76263C26.8226 2.77357 26.8228 2.78453 26.8228 2.79552C26.8228 2.80652 26.8226 2.81748 26.8224 2.82842V2.89013L26.8195 2.89174C26.7662 3.68422 26.059 4.31161 25.1944 4.31161C24.4107 4.31161 23.7563 3.79619 23.601 3.10959C23.5852 3.05939 23.5758 3.00428 23.5737 2.94378C23.5686 2.895 23.566 2.84554 23.566 2.79552C23.566 2.74709 23.5684 2.69919 23.5732 2.65192V1.44959C23.5732 0.663347 22.9377 0.0259724 22.1536 0.0259724H8.43313H7.32836V0H4.65316C2.08364 0 0.000639029 2.08301 0.000639029 4.65252L0.000639029 4.82318L0.000432611 4.82336L0.000639029 4.83089L0.000639029 6.28091H0.0129883L0.0129883 11.1661C0.0129883 11.8085 0.53374 12.3293 1.17612 12.3293H5.00252C5.6449 12.3293 6.16565 11.8085 6.16565 11.1661L6.16565 7.80155L6.16564 7.79483L6.16565 7.7881V7.70186L6.16851 7.69985C6.21758 6.88972 6.89013 6.24786 7.7126 6.24786C7.72318 6.24786 7.73372 6.24797 7.74424 6.24818C10.7181 6.24887 19.378 6.25352 20.3778 6.28424C20.4103 6.282 20.4431 6.28087 20.4761 6.28087C21.3135 6.28087 21.9923 7.00992 21.9923 7.90925C21.9923 8.80525 21.3185 9.53224 20.4854 9.53761Z" fill="#5353D3"/>
  <path d="M29.7772 23.7191H29.9772V23.5191H29.7772V23.7191ZM29.7652 23.7191H29.5652V23.9191H29.7652V23.7191ZM22.4494 30H22.2494V30.2H22.4494V30ZM22.4494 29.9915H22.6494V29.7915H22.4494V29.9915ZM6.20336 27.3731L6.00461 27.3507L6.00336 27.3619V27.3731H6.20336ZM6.1968 27.0029L5.99871 27.0306L5.99898 27.0324L6.1968 27.0029ZM6.19374 26.9833L5.99635 27.0155L5.99664 27.0172L6.19374 26.9833ZM2.95826 27.125L3.05611 27.2994L3.15119 27.2461L3.15788 27.1373L2.95826 27.125ZM2.95518 27.1267L2.85733 26.9523L2.75518 27.0096V27.1267H2.95518ZM0.0127544 22.7522H0.212754V22.7414L0.211588 22.7306L0.0127544 22.7522ZM2.90402 17.7627V17.9627L2.90458 17.9627L2.90402 17.7627ZM2.92086 17.7627V17.5627L2.92029 17.5627L2.92086 17.7627ZM9.30605 20.4709L9.30581 20.6709H9.30605V20.4709ZM9.30207 20.4709L9.30231 20.2709L9.30183 20.2709L9.30207 20.4709ZM9.2981 20.4709V20.6709H9.29834L9.2981 20.4709ZM9.28386 20.4709V20.2709H8.85972L9.12955 20.5982L9.28386 20.4709ZM9.28395 20.471L9.28646 20.671L9.70374 20.6658L9.43826 20.3438L9.28395 20.471ZM9.30207 23.7277V23.9277L9.30228 23.9277L9.30207 23.7277ZM9.30489 23.7277L9.37409 23.54L9.34049 23.5276L9.30469 23.5277L9.30489 23.7277ZM9.30504 23.7277L9.23585 23.9154L9.2361 23.9155L9.30504 23.7277ZM22.0423 23.768L22.0422 23.968L22.2423 23.9681V23.768H22.0423ZM22.0423 23.7606L22.0438 23.5606L21.8423 23.5591V23.7606H22.0423ZM22.0657 23.7608L22.0642 23.9608H22.0657V23.7608ZM23.6098 22.3087L23.4947 22.1452L23.416 22.2006L23.4102 22.2966L23.6098 22.3087ZM23.6125 22.3068L23.7276 22.4704L23.8125 22.4106V22.3068H23.6125ZM23.6125 22.2355L23.4125 22.2341V22.2355H23.6125ZM23.6127 22.2138L23.8127 22.2152L23.8127 22.2124L23.6127 22.2138ZM23.6125 22.1921H23.4125L23.4125 22.1935L23.6125 22.1921ZM29.7652 18.8425H29.5652H29.7652ZM20.4839 9.53761V9.33761L20.4834 9.33762L20.4839 9.53761ZM20.4854 9.53761V9.73762L20.4867 9.73761L20.4854 9.53761ZM20.4761 9.53764L20.4756 9.73764L20.4767 9.73763L20.4761 9.53764ZM20.4684 9.53761L20.4689 9.33761H20.4684V9.53761ZM24.8336 12.2458L24.8559 12.0471L24.8448 12.0458H24.8336V12.2458ZM29.7648 7.27458H29.5648V7.28512L29.5659 7.2956L29.7648 7.27458ZM26.8224 2.76263H26.6223L26.6225 2.7672L26.8224 2.76263ZM26.8224 2.82842L26.6224 2.82385V2.82842H26.8224ZM26.8224 2.89013L26.9203 3.06452L27.0224 3.0072V2.89013H26.8224ZM26.8195 2.89174L26.7216 2.71735L26.6273 2.77034L26.62 2.87831L26.8195 2.89174ZM23.601 3.10959L23.7961 3.06545L23.7942 3.05742L23.7918 3.04957L23.601 3.10959ZM23.5737 2.94378L23.774 2.93667L23.7726 2.92304L23.5737 2.94378ZM23.5732 2.65192L23.7722 2.672L23.7732 2.66198V2.65192H23.5732ZM7.32836 0.0259724H7.12836V0.225973H7.32836V0.0259724ZM7.32836 0H7.52836V-0.200001H7.32836V0ZM0.000639029 4.82318L0.133359 4.97279L0.200639 4.91311L0.200639 4.82318H0.000639029ZM0.000432611 4.82336L-0.132287 4.67374L-0.202046 4.73562L-0.199492 4.82883L0.000432611 4.82336ZM0.000639029 4.83089H0.200714L0.200564 4.82542L0.000639029 4.83089ZM0.000639029 6.28091H-0.199361V6.48091H0.000639029L0.000639029 6.28091ZM0.0129883 6.28091H0.212988L0.212988 6.08091H0.0129883L0.0129883 6.28091ZM0.0129883 11.1661H0.212988H0.0129883ZM6.16565 7.80155H6.36565L6.36565 7.80113L6.16565 7.80155ZM6.16564 7.79483L5.96564 7.7944L5.96564 7.79525L6.16564 7.79483ZM6.16565 7.7881L6.36565 7.78853V7.7881H6.16565ZM6.16565 7.70186L6.05062 7.53825L5.96565 7.59799V7.70186H6.16565ZM6.16851 7.69985L6.28354 7.86346L6.36232 7.80807L6.36814 7.71194L6.16851 7.69985ZM7.74424 6.24818L7.74022 6.44818L7.7442 6.44818L7.74424 6.24818ZM20.3778 6.28424L20.3717 6.48414L20.3816 6.48445L20.3916 6.48377L20.3778 6.28424ZM29.7772 23.5191H29.7652V23.9191H29.7772V23.5191ZM29.9772 25.3475V23.7191H29.5772V25.3475H29.9772ZM25.1246 30.2C27.8046 30.2 29.9772 28.0275 29.9772 25.3475H29.5772C29.5772 27.8065 27.5837 29.8 25.1246 29.8V30.2ZM22.4494 30.2H25.1246V29.8H22.4494V30.2ZM22.2494 29.9915V30H22.6494V29.9915H22.2494ZM7.62294 30.1915H22.4494V29.7915H7.62294V30.1915ZM6.00336 28.5678C6.00336 29.464 6.72793 30.1915 7.62294 30.1915V29.7915C6.94992 29.7915 6.40336 29.2442 6.40336 28.5678H6.00336ZM6.00336 27.3731V28.5678H6.40336V27.3731H6.00336ZM6.01232 27.2131C6.01232 27.2596 6.00971 27.3056 6.00461 27.3507L6.4021 27.3955C6.40886 27.3355 6.41232 27.2746 6.41232 27.2131H6.01232ZM5.99898 27.0324C6.00777 27.0914 6.01232 27.1517 6.01232 27.2131H6.41232C6.41232 27.1318 6.40629 27.0518 6.39462 26.9735L5.99898 27.0324ZM5.99664 27.0172C5.99739 27.0216 5.99808 27.026 5.99872 27.0306L6.39488 26.9753C6.39367 26.9666 6.39232 26.958 6.39085 26.9494L5.99664 27.0172ZM4.58394 25.897C5.31039 25.897 5.89464 26.3927 5.99636 27.0155L6.39113 26.9511C6.255 26.1174 5.48836 25.497 4.58394 25.497V25.897ZM3.15788 27.1373C3.19968 26.4579 3.81022 25.897 4.58394 25.897V25.497C3.62251 25.497 2.81482 26.1995 2.75864 27.1127L3.15788 27.1373ZM3.05303 27.3012L3.05611 27.2994L2.86041 26.9506L2.85733 26.9523L3.05303 27.3012ZM3.15518 28.4695V27.1267H2.75518V28.4695H3.15518ZM1.48397 30.1407C2.40695 30.1407 3.15518 29.3925 3.15518 28.4695H2.75518C2.75518 29.1715 2.18604 29.7407 1.48397 29.7407V30.1407ZM-0.187246 28.4695C-0.187246 29.3924 0.560981 30.1407 1.48397 30.1407V29.7407C0.781895 29.7407 0.212754 29.1715 0.212754 28.4695H-0.187246ZM-0.187246 22.7522L-0.187246 28.4695H0.212754L0.212754 22.7522H-0.187246ZM-0.2 22.5601C-0.2 22.6204 -0.194837 22.693 -0.186079 22.7738L0.211588 22.7306C0.203577 22.6568 0.2 22.6 0.2 22.5601H-0.2ZM-0.2 19.1864L-0.2 22.5601H0.2L0.2 19.1864H-0.2ZM1.41958 17.5627C0.524576 17.5627 -0.2 18.2902 -0.2 19.1864H0.2C0.2 18.51 0.746561 17.9627 1.41958 17.9627V17.5627ZM2.90402 17.5627H1.41958V17.9627H2.90402V17.5627ZM2.92029 17.5627L2.90345 17.5627L2.90458 17.9627L2.92142 17.9627L2.92029 17.5627ZM10.7224 17.5627H2.92086V17.9627H10.7224V17.5627ZM12.2766 19.1168C12.2766 18.2585 11.5808 17.5627 10.7224 17.5627V17.9627C11.3598 17.9627 11.8766 18.4794 11.8766 19.1168H12.2766ZM10.7224 20.6709C11.5808 20.6709 12.2766 19.9751 12.2766 19.1168H11.8766C11.8766 19.7542 11.3598 20.2709 10.7224 20.2709V20.6709ZM9.30605 20.6709H10.7224V20.2709H9.30605V20.6709ZM9.30183 20.6709L9.30581 20.6709L9.30629 20.2709L9.30231 20.2709L9.30183 20.6709ZM9.29834 20.6709L9.30231 20.6709L9.30183 20.2709L9.29786 20.2709L9.29834 20.6709ZM9.28386 20.6709H9.2981V20.2709H9.28386V20.6709ZM9.43826 20.3438L9.43817 20.3437L9.12955 20.5982L9.12964 20.5983L9.43826 20.3438ZM7.98593 22.0993C7.98593 21.3026 8.57978 20.6799 9.28646 20.671L9.28143 20.271C8.33014 20.283 7.58593 21.1103 7.58593 22.0993H7.98593ZM9.30207 23.5277C8.5884 23.5277 7.98593 22.9019 7.98593 22.0993H7.58593C7.58593 23.0954 8.34106 23.9277 9.30207 23.9277V23.5277ZM9.30469 23.5277L9.30187 23.5277L9.30228 23.9277L9.30509 23.9277L9.30469 23.5277ZM9.37424 23.5401L9.37409 23.54L9.2357 23.9153L9.23585 23.9154L9.37424 23.5401ZM22.0425 23.568C19.2832 23.566 16.1168 23.5625 13.6315 23.5562C12.3887 23.5531 11.3165 23.5492 10.5505 23.5445C10.1675 23.5422 9.86142 23.5396 9.6491 23.5368C9.54281 23.5354 9.46074 23.534 9.40447 23.5325C9.37615 23.5318 9.35557 23.5311 9.34216 23.5304C9.33524 23.53 9.33195 23.5298 9.33117 23.5297C9.33064 23.5297 9.33275 23.5298 9.33633 23.5304C9.33813 23.5306 9.3418 23.5312 9.34658 23.5322C9.35006 23.5329 9.36073 23.5351 9.37399 23.54L9.2361 23.9155C9.25852 23.9237 9.27843 23.9261 9.27969 23.9263C9.2861 23.9272 9.2919 23.9278 9.29591 23.9282C9.3042 23.9289 9.31337 23.9294 9.32223 23.9299C9.34039 23.9308 9.36467 23.9316 9.39396 23.9324C9.45292 23.9339 9.5371 23.9354 9.64386 23.9368C9.85761 23.9396 10.1648 23.9422 10.5481 23.9445C11.3147 23.9492 12.3876 23.9531 13.6304 23.9562C16.1162 23.9625 19.2828 23.966 22.0422 23.968L22.0425 23.568ZM21.8423 23.7606V23.768H22.2423V23.7606H21.8423ZM22.0672 23.5608L22.0438 23.5606L22.0408 23.9606L22.0642 23.9608L22.0672 23.5608ZM23.4102 22.2966C23.3675 23.0019 22.7818 23.5608 22.0657 23.5608V23.9608C22.9946 23.9608 23.7541 23.2359 23.8095 22.3208L23.4102 22.2966ZM23.4974 22.1433L23.4947 22.1452L23.7249 22.4723L23.7276 22.4704L23.4974 22.1433ZM23.4125 22.2355V22.3068H23.8125V22.2355H23.4125ZM23.4127 22.2124L23.4125 22.2341L23.8125 22.2369L23.8127 22.2152L23.4127 22.2124ZM23.4125 22.1935L23.4127 22.2152L23.8127 22.2124L23.8125 22.1908L23.4125 22.1935ZM23.4125 18.8425V22.1921H23.8125V18.8425H23.4125ZM24.7757 17.4794C24.0228 17.4794 23.4125 18.0897 23.4125 18.8425H23.8125C23.8125 18.3106 24.2437 17.8794 24.7757 17.8794V17.4794ZM28.6021 17.4794H24.7757V17.8794H28.6021V17.4794ZM29.9652 18.8425C29.9652 18.0897 29.3549 17.4794 28.6021 17.4794V17.8794C29.134 17.8794 29.5652 18.3106 29.5652 18.8425H29.9652ZM29.9652 23.7191L29.9652 18.8425H29.5652L29.5652 23.7191H29.9652ZM20.4839 9.73762H20.4854V9.33761H20.4839V9.73762ZM20.4767 9.73763L20.4844 9.73761L20.4834 9.33762L20.4756 9.33764L20.4767 9.73763ZM20.4678 9.73761L20.4756 9.73763L20.4767 9.33764L20.4689 9.33762L20.4678 9.73761ZM19.0551 9.73762H20.4684V9.33761H19.0551V9.73762ZM17.901 10.8917C17.901 10.2543 18.4177 9.73762 19.0551 9.73762V9.33761C18.1968 9.33761 17.501 10.0334 17.501 10.8917H17.901ZM19.0551 12.0458C18.4177 12.0458 17.901 11.5291 17.901 10.8917H17.501C17.501 11.75 18.1968 12.4458 19.0551 12.4458V12.0458ZM24.8336 12.0458H19.0551V12.4458H24.8336V12.0458ZM24.9928 12.0547C24.9464 12.0547 24.9008 12.0521 24.8559 12.0471L24.8114 12.4446C24.871 12.4513 24.9315 12.4547 24.9928 12.4547V12.0547ZM28.357 12.0547H24.9928V12.4547H28.357V12.0547ZM29.5766 10.8311C29.5766 11.5074 29.03 12.0547 28.357 12.0547V12.4547C29.252 12.4547 29.9766 11.7272 29.9766 10.8311H29.5766ZM29.5766 7.4573V10.8311H29.9766V7.4573H29.5766ZM29.5659 7.2956C29.5733 7.36528 29.5766 7.41909 29.5766 7.4573H29.9766C29.9766 7.39943 29.9718 7.33021 29.9637 7.25357L29.5659 7.2956ZM29.5648 1.53917V7.27458H29.9648V1.53917H29.5648ZM28.2936 0.267956C28.9957 0.267956 29.5648 0.837097 29.5648 1.53917H29.9648C29.9648 0.616184 29.2166 -0.132046 28.2936 -0.132046V0.267956ZM27.0224 1.53917C27.0224 0.837095 27.5915 0.267956 28.2936 0.267956V-0.132046C27.3706 -0.132046 26.6224 0.616182 26.6224 1.53917H27.0224ZM27.0224 2.76263V1.53917H26.6224V2.76263H27.0224ZM27.0228 2.79552C27.0228 2.783 27.0226 2.77052 27.0223 2.75806L26.6225 2.7672C26.6227 2.77662 26.6228 2.78606 26.6228 2.79552H27.0228ZM27.0223 2.83299C27.0226 2.82053 27.0228 2.80804 27.0228 2.79552H26.6228C26.6228 2.80499 26.6227 2.81443 26.6225 2.82385L27.0223 2.83299ZM27.0224 2.89013V2.82842H26.6224V2.89013H27.0224ZM26.9175 3.06612L26.9203 3.06452L26.7245 2.71575L26.7216 2.71735L26.9175 3.06612ZM25.1944 4.51161C26.1526 4.51161 26.958 3.8139 27.0191 2.90516L26.62 2.87831C26.5745 3.55453 25.9654 4.1116 25.1944 4.1116V4.51161ZM23.4059 3.15373C23.5835 3.9386 24.3248 4.51161 25.1944 4.51161V4.1116C24.4967 4.1116 23.9292 3.65378 23.7961 3.06545L23.4059 3.15373ZM23.3738 2.95087C23.3765 3.02777 23.3886 3.10082 23.4102 3.16961L23.7918 3.04957C23.7818 3.01796 23.7751 2.98079 23.7736 2.93669L23.3738 2.95087ZM23.366 2.79552C23.366 2.85249 23.369 2.90886 23.3748 2.96451L23.7726 2.92304C23.7682 2.88114 23.766 2.8386 23.766 2.79552H23.366ZM23.3742 2.63184C23.3688 2.68576 23.366 2.74037 23.366 2.79552H23.766C23.766 2.75381 23.7681 2.71261 23.7722 2.672L23.3742 2.63184ZM23.3732 1.44959V2.65192H23.7732V1.44959H23.3732ZM22.1536 0.225973C22.8267 0.225973 23.3732 0.77327 23.3732 1.44959H23.7732C23.7732 0.553425 23.0486 -0.174028 22.1536 -0.174028V0.225973ZM8.43313 0.225973H22.1536V-0.174028H8.43313V0.225973ZM7.32836 0.225973H8.43313V-0.174028H7.32836V0.225973ZM7.12836 0V0.0259724H7.52836V0H7.12836ZM4.65316 0.200001H7.32836V-0.200001H4.65316V0.200001ZM0.200639 4.65252C0.200639 2.19346 2.1941 0.200001 4.65316 0.200001V-0.200001C1.97319 -0.200001 -0.199361 1.97255 -0.199361 4.65252H0.200639ZM0.200639 4.82318V4.65252H-0.199361V4.82318H0.200639ZM0.133153 4.97298L0.133359 4.97279L-0.132081 4.67356L-0.132287 4.67374L0.133153 4.97298ZM0.200564 4.82542L0.200358 4.81788L-0.199492 4.82883L-0.199286 4.83637L0.200564 4.82542ZM0.200639 6.28091L0.200639 4.83089H-0.199361L-0.199361 6.28091H0.200639ZM0.0129883 6.08091H0.000639029L0.000639029 6.48091H0.0129883L0.0129883 6.08091ZM0.212988 11.1661L0.212988 6.28091H-0.187012L-0.187012 11.1661H0.212988ZM1.17612 12.1293C0.644197 12.1293 0.212988 11.6981 0.212988 11.1661H-0.187012C-0.187012 11.919 0.423283 12.5293 1.17612 12.5293V12.1293ZM5.00252 12.1293H1.17612V12.5293H5.00252V12.1293ZM5.96565 11.1661C5.96565 11.6981 5.53445 12.1293 5.00252 12.1293V12.5293C5.75536 12.5293 6.36565 11.919 6.36565 11.1661H5.96565ZM5.96565 7.80155L5.96565 11.1661H6.36565L6.36565 7.80155H5.96565ZM5.96564 7.79525L5.96565 7.80198L6.36565 7.80113L6.36564 7.7944L5.96564 7.79525ZM5.96565 7.78768L5.96564 7.7944L6.36564 7.79525L6.36565 7.78853L5.96565 7.78768ZM5.96565 7.70186V7.7881H6.36565V7.70186H5.96565ZM6.05348 7.53624L6.05062 7.53825L6.28069 7.86547L6.28354 7.86346L6.05348 7.53624ZM7.7126 6.04786C6.78373 6.04786 6.0243 6.77271 5.96887 7.68776L6.36814 7.71194C6.41086 7.00673 6.99654 6.44786 7.7126 6.44786V6.04786ZM7.74827 6.04822C7.73641 6.04799 7.72452 6.04786 7.7126 6.04786V6.44786C7.72183 6.44786 7.73103 6.44796 7.74022 6.44814L7.74827 6.04822ZM20.384 6.08433C19.3802 6.05349 10.7149 6.04887 7.74429 6.04818L7.7442 6.44818C10.7212 6.44887 19.3759 6.45355 20.3717 6.48414L20.384 6.08433ZM20.4761 6.08087C20.4385 6.08087 20.4012 6.08216 20.3641 6.08471L20.3916 6.48377C20.4195 6.48185 20.4477 6.48087 20.4761 6.48087V6.08087ZM22.1923 7.90925C22.1923 6.91316 21.4371 6.08087 20.4761 6.08087V6.48087C21.1898 6.48087 21.7923 7.10669 21.7923 7.90925H22.1923ZM20.4867 9.73761C21.4428 9.73144 22.1923 8.90171 22.1923 7.90925H21.7923C21.7923 8.70879 21.1942 9.33304 20.4841 9.33762L20.4867 9.73761Z" fill="white" mask="url(#path-1-inside-1_489_1696)"/>
</svg>
