<svg width="177" height="100" viewBox="0 0 177 100" fill="none" xmlns="http://www.w3.org/2000/svg">
  <path fill-rule="evenodd" clip-rule="evenodd" d="M166.718 5.5313C166.238 4.93226 165.457 4.66053 164.709 4.83208L88.3962 22.3321C87.632 22.5076 87.0401 23.1135 86.8836 23.8819C86.7271 24.6505 87.0347 25.44 87.6697 25.9004L105.25 38.6446V56.2813C105.25 57.0668 105.71 57.7798 106.426 58.1036C107.141 58.4272 107.981 58.3021 108.571 57.7833L119.286 48.3565L140.671 58.1016C141.663 58.5535 142.834 58.1272 143.304 57.1436L166.961 7.6436C167.292 6.9512 167.197 6.13037 166.718 5.5313ZM140.542 53.6465L120.615 44.5665L160.332 12.2325L140.542 53.6465ZM109.25 51.8575V37.6846L155.48 13.6045L117.869 44.2247C117.783 44.2947 117.711 44.3761 117.655 44.4649L117.654 44.4654C117.642 44.4761 117.629 44.487 117.616 44.4981L109.25 51.8575ZM108.306 35.9209L93.5818 25.2461L156.508 10.8155L108.306 35.9209ZM18.3991 60.3781C19.1714 60.0784 19.5549 59.2096 19.2553 58.4373C18.7974 57.2574 18.4683 56.2909 18.2548 55.6241C18.1481 55.2909 18.0703 55.0326 18.02 54.8604C17.9948 54.7743 17.9764 54.7096 17.9647 54.6678C17.9614 54.6562 17.9585 54.6464 17.9561 54.6383C17.9543 54.6321 17.9527 54.627 17.9516 54.6229C17.9509 54.6201 17.9505 54.6177 17.9502 54.6158C17.9501 54.6146 17.95 54.6137 17.9498 54.613C17.7357 53.8127 16.9128 53.3369 16.1125 53.5509C15.3122 53.765 14.8371 54.5873 15.0512 55.3876L15.051 55.389L15.0515 55.3911L15.0531 55.3961C15.0536 55.398 15.0542 55.4001 15.0548 55.4025C15.0556 55.4058 15.0565 55.4096 15.0577 55.4139C15.0596 55.4207 15.062 55.4288 15.0647 55.4382C15.0679 55.4489 15.0715 55.4612 15.0755 55.4752L15.0785 55.4861C15.0931 55.5383 15.1133 55.6107 15.14 55.7019C15.1971 55.8973 15.2822 56.1799 15.397 56.5385C15.6268 57.2561 15.9756 58.2803 16.4576 59.5225C16.7573 60.2948 17.6269 60.6777 18.3991 60.3781ZM24.9743 74.5226C25.4936 75.1678 26.4374 75.27 27.0828 74.7509C27.7281 74.2315 27.8307 73.2865 27.3113 72.6411C25.5097 70.4026 24.0005 68.0756 22.7555 65.8603C22.3497 65.1381 21.4352 64.8813 20.713 65.2872C19.9909 65.693 19.7342 66.6075 20.1399 67.3297C21.4509 69.6626 23.0507 72.1325 24.9743 74.5226ZM38.6006 85.3348C39.3583 85.6693 40.244 85.3263 40.5786 84.5686C40.9131 83.8108 40.5702 82.9251 39.8125 82.5906C37.2953 81.4796 35.0296 80.0404 32.9965 78.3956C32.3524 77.8748 31.4085 77.9748 30.8875 78.6187C30.3665 79.2628 30.4658 80.2073 31.1099 80.7283C33.325 82.5204 35.8148 84.1052 38.6006 85.3348ZM56.0229 87.7222C56.8452 87.6233 57.4316 86.877 57.3332 86.0548C57.2344 85.2323 56.4876 84.6451 55.6652 84.7438C54.2721 84.9111 52.8811 85.0001 51.4992 85.0001C50.1075 85 48.7708 84.9098 47.4876 84.7396C46.6665 84.6309 45.913 85.2079 45.804 86.029C45.6951 86.8502 46.2727 87.6044 47.094 87.7134C48.5094 87.9011 49.9778 88.0001 51.4998 88.0001C53.01 88.0001 54.5203 87.9027 56.0229 87.7222ZM73.068 82.5021C73.8173 82.1488 74.1391 81.2552 73.7858 80.5059C73.4326 79.7566 72.5382 79.4355 71.7889 79.7887C69.2331 80.9937 66.5817 82.0655 63.8829 82.9192C63.0931 83.169 62.6556 84.0121 62.9053 84.8019C63.1551 85.5917 63.9976 86.0298 64.7873 85.7801C67.6339 84.8797 70.4109 83.7549 73.068 82.5021ZM80.8737 78.3078C83.5641 76.6893 86.0439 75.0228 88.2408 73.4435C88.9134 72.9599 89.0665 72.0226 88.5829 71.3499C88.0994 70.6774 87.1627 70.524 86.4901 71.0072C84.349 72.5464 81.9373 74.1667 79.3273 75.7369C78.6174 76.1639 78.3874 77.0857 78.8144 77.7955C79.2414 78.5054 80.1639 78.7348 80.8737 78.3078ZM93.0954 67.8422C93.6287 68.4761 94.575 68.5579 95.2089 68.0245C96.2633 67.1375 97.0908 66.4066 97.6568 65.8955C97.9398 65.64 98.1574 65.4388 98.3055 65.3009C98.3316 65.2766 98.3556 65.2543 98.3775 65.234C98.4174 65.1969 98.4501 65.1665 98.4752 65.1429C98.4868 65.1319 98.4967 65.1222 98.505 65.114C98.5106 65.1086 98.5154 65.1038 98.5195 65.0999L98.5317 65.0886L98.5377 65.0836C99.1359 64.5107 99.1562 63.561 98.5834 62.9627C98.0462 62.4016 97.1776 62.3483 96.5782 62.8162L96.4625 62.9169L96.461 62.9182L96.4526 62.9264C96.4492 62.9296 96.4449 62.9336 96.4397 62.9383C96.433 62.9445 96.4248 62.952 96.4153 62.961C96.3925 62.9825 96.3617 63.0118 96.323 63.0483C96.3043 63.0659 96.2838 63.0851 96.2614 63.1059C96.1239 63.234 95.9174 63.4242 95.6462 63.6691C95.1037 64.159 94.3022 64.8667 93.277 65.7292C92.6433 66.2626 92.5622 67.2083 93.0954 67.8422Z" fill="#101112" fill-opacity="0.8"/>
</svg>
